<mxfile host="app.diagrams.net" modified="2024-06-26T11:07:11.636Z" agent="Mozilla/5.0 (Windows NT 10.0; Win64; x64) AppleWebKit/537.36 (KHTML, like Gecko) Chrome/126.0.0.0 Safari/537.36" etag="Vk049CxIPTUTSInqGxLC" version="24.6.3" type="device">
  <diagram name="Trang-1" id="MbnZfGxsNOe-atzVeMFA">
    <mxGraphModel dx="2100" dy="2283" grid="1" gridSize="10" guides="1" tooltips="1" connect="1" arrows="1" fold="1" page="1" pageScale="1" pageWidth="827" pageHeight="1169" math="0" shadow="0">
      <root>
        <mxCell id="0" />
        <mxCell id="1" parent="0" />
        <mxCell id="-I2zfIpaaGANCoGOM-Xs-35" value="" style="rounded=1;whiteSpace=wrap;html=1;" vertex="1" parent="1">
          <mxGeometry x="230" y="-30" width="890" height="580" as="geometry" />
        </mxCell>
        <mxCell id="-I2zfIpaaGANCoGOM-Xs-10" style="rounded=0;orthogonalLoop=1;jettySize=auto;html=1;" edge="1" parent="1" source="F4-MGSY2tkJYdox-mnk2-1" target="-I2zfIpaaGANCoGOM-Xs-2">
          <mxGeometry relative="1" as="geometry" />
        </mxCell>
        <mxCell id="-I2zfIpaaGANCoGOM-Xs-11" style="rounded=0;orthogonalLoop=1;jettySize=auto;html=1;entryX=0;entryY=0.5;entryDx=0;entryDy=0;" edge="1" parent="1" source="F4-MGSY2tkJYdox-mnk2-1" target="-I2zfIpaaGANCoGOM-Xs-1">
          <mxGeometry relative="1" as="geometry" />
        </mxCell>
        <mxCell id="-I2zfIpaaGANCoGOM-Xs-12" style="rounded=0;orthogonalLoop=1;jettySize=auto;html=1;entryX=0;entryY=0.5;entryDx=0;entryDy=0;" edge="1" parent="1" source="F4-MGSY2tkJYdox-mnk2-1" target="-I2zfIpaaGANCoGOM-Xs-3">
          <mxGeometry relative="1" as="geometry" />
        </mxCell>
        <mxCell id="-I2zfIpaaGANCoGOM-Xs-14" style="rounded=0;orthogonalLoop=1;jettySize=auto;html=1;entryX=0;entryY=0.5;entryDx=0;entryDy=0;" edge="1" parent="1" source="F4-MGSY2tkJYdox-mnk2-1" target="-I2zfIpaaGANCoGOM-Xs-4">
          <mxGeometry relative="1" as="geometry" />
        </mxCell>
        <mxCell id="-I2zfIpaaGANCoGOM-Xs-21" style="rounded=0;orthogonalLoop=1;jettySize=auto;html=1;entryX=0;entryY=0.5;entryDx=0;entryDy=0;" edge="1" parent="1" source="F4-MGSY2tkJYdox-mnk2-1" target="-I2zfIpaaGANCoGOM-Xs-8">
          <mxGeometry relative="1" as="geometry" />
        </mxCell>
        <mxCell id="-I2zfIpaaGANCoGOM-Xs-25" style="rounded=0;orthogonalLoop=1;jettySize=auto;html=1;entryX=0;entryY=0.5;entryDx=0;entryDy=0;" edge="1" parent="1" source="F4-MGSY2tkJYdox-mnk2-1" target="-I2zfIpaaGANCoGOM-Xs-24">
          <mxGeometry relative="1" as="geometry" />
        </mxCell>
        <mxCell id="F4-MGSY2tkJYdox-mnk2-1" value="Actor" style="shape=umlActor;verticalLabelPosition=bottom;verticalAlign=top;html=1;outlineConnect=0;" parent="1" vertex="1">
          <mxGeometry x="160" y="200" width="30" height="60" as="geometry" />
        </mxCell>
        <mxCell id="-I2zfIpaaGANCoGOM-Xs-16" style="rounded=0;orthogonalLoop=1;jettySize=auto;html=1;dashed=1;exitX=1;exitY=0.5;exitDx=0;exitDy=0;" edge="1" parent="1" source="-I2zfIpaaGANCoGOM-Xs-4" target="-I2zfIpaaGANCoGOM-Xs-6">
          <mxGeometry relative="1" as="geometry" />
        </mxCell>
        <mxCell id="-I2zfIpaaGANCoGOM-Xs-17" value="&lt;b&gt;&lt;font style=&quot;font-size: 14px;&quot;&gt;Extend&lt;/font&gt;&lt;/b&gt;" style="edgeLabel;html=1;align=center;verticalAlign=middle;resizable=0;points=[];" vertex="1" connectable="0" parent="-I2zfIpaaGANCoGOM-Xs-16">
          <mxGeometry x="-0.2108" relative="1" as="geometry">
            <mxPoint as="offset" />
          </mxGeometry>
        </mxCell>
        <mxCell id="-I2zfIpaaGANCoGOM-Xs-1" value="Sign in" style="ellipse;whiteSpace=wrap;html=1;" vertex="1" parent="1">
          <mxGeometry x="400" y="170" width="120" height="80" as="geometry" />
        </mxCell>
        <mxCell id="-I2zfIpaaGANCoGOM-Xs-2" value="Register" style="ellipse;whiteSpace=wrap;html=1;" vertex="1" parent="1">
          <mxGeometry x="330" width="120" height="80" as="geometry" />
        </mxCell>
        <mxCell id="-I2zfIpaaGANCoGOM-Xs-3" value="Update Information" style="ellipse;whiteSpace=wrap;html=1;" vertex="1" parent="1">
          <mxGeometry x="330" y="430" width="120" height="80" as="geometry" />
        </mxCell>
        <mxCell id="-I2zfIpaaGANCoGOM-Xs-4" value="Show Movie List" style="ellipse;whiteSpace=wrap;html=1;" vertex="1" parent="1">
          <mxGeometry x="420" y="290" width="120" height="80" as="geometry" />
        </mxCell>
        <mxCell id="-I2zfIpaaGANCoGOM-Xs-5" value="Buy Tickets" style="ellipse;whiteSpace=wrap;html=1;" vertex="1" parent="1">
          <mxGeometry x="950" y="290" width="120" height="80" as="geometry" />
        </mxCell>
        <mxCell id="-I2zfIpaaGANCoGOM-Xs-6" value="Show movie&#39;s detail" style="ellipse;whiteSpace=wrap;html=1;" vertex="1" parent="1">
          <mxGeometry x="690" y="290" width="120" height="80" as="geometry" />
        </mxCell>
        <mxCell id="-I2zfIpaaGANCoGOM-Xs-18" style="rounded=0;orthogonalLoop=1;jettySize=auto;html=1;entryX=0;entryY=0.5;entryDx=0;entryDy=0;dashed=1;" edge="1" parent="1" source="-I2zfIpaaGANCoGOM-Xs-7" target="-I2zfIpaaGANCoGOM-Xs-6">
          <mxGeometry relative="1" as="geometry" />
        </mxCell>
        <mxCell id="-I2zfIpaaGANCoGOM-Xs-19" value="&lt;b&gt;&lt;font style=&quot;font-size: 14px;&quot;&gt;Extend&lt;/font&gt;&lt;/b&gt;" style="edgeLabel;html=1;align=center;verticalAlign=middle;resizable=0;points=[];" vertex="1" connectable="0" parent="-I2zfIpaaGANCoGOM-Xs-18">
          <mxGeometry x="-0.2667" relative="1" as="geometry">
            <mxPoint as="offset" />
          </mxGeometry>
        </mxCell>
        <mxCell id="-I2zfIpaaGANCoGOM-Xs-22" style="rounded=0;orthogonalLoop=1;jettySize=auto;html=1;dashed=1;" edge="1" parent="1" source="-I2zfIpaaGANCoGOM-Xs-7" target="-I2zfIpaaGANCoGOM-Xs-8">
          <mxGeometry relative="1" as="geometry" />
        </mxCell>
        <mxCell id="-I2zfIpaaGANCoGOM-Xs-23" value="&lt;font style=&quot;font-size: 14px;&quot;&gt;&lt;b&gt;Include&lt;/b&gt;&lt;/font&gt;" style="edgeLabel;html=1;align=center;verticalAlign=middle;resizable=0;points=[];" vertex="1" connectable="0" parent="-I2zfIpaaGANCoGOM-Xs-22">
          <mxGeometry x="0.0556" y="2" relative="1" as="geometry">
            <mxPoint as="offset" />
          </mxGeometry>
        </mxCell>
        <mxCell id="-I2zfIpaaGANCoGOM-Xs-7" value="Add favorite" style="ellipse;whiteSpace=wrap;html=1;" vertex="1" parent="1">
          <mxGeometry x="560" y="170" width="120" height="80" as="geometry" />
        </mxCell>
        <mxCell id="-I2zfIpaaGANCoGOM-Xs-32" style="rounded=0;orthogonalLoop=1;jettySize=auto;html=1;entryX=0;entryY=0.5;entryDx=0;entryDy=0;dashed=1;" edge="1" parent="1" source="-I2zfIpaaGANCoGOM-Xs-8" target="-I2zfIpaaGANCoGOM-Xs-5">
          <mxGeometry relative="1" as="geometry" />
        </mxCell>
        <mxCell id="-I2zfIpaaGANCoGOM-Xs-33" value="&lt;b&gt;&lt;font style=&quot;font-size: 14px;&quot;&gt;Extend&lt;/font&gt;&lt;/b&gt;" style="edgeLabel;html=1;align=center;verticalAlign=middle;resizable=0;points=[];" vertex="1" connectable="0" parent="-I2zfIpaaGANCoGOM-Xs-32">
          <mxGeometry x="0.0454" y="-3" relative="1" as="geometry">
            <mxPoint x="-8" y="-19" as="offset" />
          </mxGeometry>
        </mxCell>
        <mxCell id="-I2zfIpaaGANCoGOM-Xs-8" value="Manage history" style="ellipse;whiteSpace=wrap;html=1;" vertex="1" parent="1">
          <mxGeometry x="560" width="120" height="80" as="geometry" />
        </mxCell>
        <mxCell id="-I2zfIpaaGANCoGOM-Xs-26" style="rounded=0;orthogonalLoop=1;jettySize=auto;html=1;dashed=1;" edge="1" parent="1" source="-I2zfIpaaGANCoGOM-Xs-13" target="-I2zfIpaaGANCoGOM-Xs-5">
          <mxGeometry relative="1" as="geometry" />
        </mxCell>
        <mxCell id="-I2zfIpaaGANCoGOM-Xs-27" value="&lt;b style=&quot;font-size: 14px;&quot;&gt;Include&lt;/b&gt;" style="edgeLabel;html=1;align=center;verticalAlign=middle;resizable=0;points=[];" vertex="1" connectable="0" parent="-I2zfIpaaGANCoGOM-Xs-26">
          <mxGeometry x="-0.1134" y="-1" relative="1" as="geometry">
            <mxPoint y="1" as="offset" />
          </mxGeometry>
        </mxCell>
        <mxCell id="-I2zfIpaaGANCoGOM-Xs-13" value="Payment" style="ellipse;whiteSpace=wrap;html=1;" vertex="1" parent="1">
          <mxGeometry x="950" y="80" width="120" height="80" as="geometry" />
        </mxCell>
        <mxCell id="-I2zfIpaaGANCoGOM-Xs-30" style="rounded=0;orthogonalLoop=1;jettySize=auto;html=1;entryX=0;entryY=0.5;entryDx=0;entryDy=0;dashed=1;exitX=1;exitY=0.5;exitDx=0;exitDy=0;" edge="1" parent="1" source="-I2zfIpaaGANCoGOM-Xs-24" target="-I2zfIpaaGANCoGOM-Xs-5">
          <mxGeometry relative="1" as="geometry" />
        </mxCell>
        <mxCell id="-I2zfIpaaGANCoGOM-Xs-31" value="&lt;b&gt;&lt;font style=&quot;font-size: 14px;&quot;&gt;Extend&lt;/font&gt;&lt;/b&gt;" style="edgeLabel;html=1;align=center;verticalAlign=middle;resizable=0;points=[];" vertex="1" connectable="0" parent="-I2zfIpaaGANCoGOM-Xs-30">
          <mxGeometry x="-0.1815" y="5" relative="1" as="geometry">
            <mxPoint as="offset" />
          </mxGeometry>
        </mxCell>
        <mxCell id="-I2zfIpaaGANCoGOM-Xs-38" style="rounded=0;orthogonalLoop=1;jettySize=auto;html=1;dashed=1;" edge="1" parent="1" source="-I2zfIpaaGANCoGOM-Xs-24">
          <mxGeometry relative="1" as="geometry">
            <mxPoint x="690" y="330" as="targetPoint" />
          </mxGeometry>
        </mxCell>
        <mxCell id="-I2zfIpaaGANCoGOM-Xs-39" value="&lt;b&gt;&lt;font style=&quot;font-size: 14px;&quot;&gt;Extend&lt;/font&gt;&lt;/b&gt;" style="edgeLabel;html=1;align=center;verticalAlign=middle;resizable=0;points=[];" vertex="1" connectable="0" parent="-I2zfIpaaGANCoGOM-Xs-38">
          <mxGeometry x="-0.0234" y="-1" relative="1" as="geometry">
            <mxPoint as="offset" />
          </mxGeometry>
        </mxCell>
        <mxCell id="-I2zfIpaaGANCoGOM-Xs-24" value="Show Favorite List" style="ellipse;whiteSpace=wrap;html=1;" vertex="1" parent="1">
          <mxGeometry x="570" y="440" width="120" height="80" as="geometry" />
        </mxCell>
        <mxCell id="-I2zfIpaaGANCoGOM-Xs-36" value="" style="rounded=0;orthogonalLoop=1;jettySize=auto;html=1;dashed=1;entryX=0;entryY=0.5;entryDx=0;entryDy=0;" edge="1" parent="1" source="-I2zfIpaaGANCoGOM-Xs-6" target="-I2zfIpaaGANCoGOM-Xs-5">
          <mxGeometry relative="1" as="geometry">
            <mxPoint x="810" y="330" as="sourcePoint" />
            <mxPoint x="950" y="330" as="targetPoint" />
          </mxGeometry>
        </mxCell>
        <mxCell id="-I2zfIpaaGANCoGOM-Xs-37" value="&lt;b&gt;&lt;font style=&quot;font-size: 14px;&quot;&gt;Extend&lt;/font&gt;&lt;/b&gt;" style="edgeLabel;html=1;align=center;verticalAlign=middle;resizable=0;points=[];" vertex="1" connectable="0" parent="-I2zfIpaaGANCoGOM-Xs-36">
          <mxGeometry x="-0.0025" relative="1" as="geometry">
            <mxPoint as="offset" />
          </mxGeometry>
        </mxCell>
      </root>
    </mxGraphModel>
  </diagram>
</mxfile>
